# xmcd
#
# Track frame offsets: 
#        150
#        14128
#        27178
#        44675
#        61058
#        81713
#        97919
#        112486
#        127123
#        143286
#        157935
#
# Disc length: 2192 seconds
#
# Revision: 0
# Processed by: cddbd v1.5.2PL0 Copyright (c) Steve Scherf et al.
# Submitted via: ExactAudioCopy v0.99pb4
#
DISCID=97088e0b
DTITLE=Ballgag 'n' Chain Gang - Ballgag 'n' Chain Gang
DYEAR=2008
DGENRE=Alt-Country
TTITLE0=The Battle Is Over
TTITLE1=Where Did The Love Go?
TTITLE2=Oh My!
TTITLE3=Boomerang Alley
TTITLE4=(The Land Of) Hookers 'n' Blow
TTITLE5=House Of Horrors
TTITLE6=Streetshow
TTITLE7=Unleash The Beast
TTITLE8=Don't Mind Dyin'
TTITLE9=Hopeless Sinner
TTITLE10=Eat Me When I Die
EXTD=
EXTT0=
EXTT1=
EXTT2=
EXTT3=
EXTT4=
EXTT5=
EXTT6=
EXTT7=
EXTT8=
EXTT9=
EXTT10=
PLAYORDER=
